# xmcd
#
# Track frame offsets: 
#        150
#        8409
#        14450
#        19726
#        23696
#        31054
#        40785
#        50222
#        60029
#        68305
#        80286
#        84223
#        89347
#        91129
#        111189
#
# Disc length: 1965 seconds
#
# Revision: 0
# Processed by: cddbd v1.5.2PL0 Copyright (c) Steve Scherf et al.
# Submitted via: ExactAudioCopy v0.95b3
#
DISCID=9407ab0f
DTITLE=Cross Examination - The Hung Jury [OCR014]
DYEAR=2006
DGENRE=Thrash Metal
TTITLE0=Awesome Party Intro
TTITLE1=Party Squad Unite
TTITLE2=Omen Of Prophecy
TTITLE3=The Hung Jury
TTITLE4=Mortal Kombat
TTITLE5=P.A.C.P.
TTITLE6=The Foodening ($3.49 Mark Of The Feast)
TTITLE7=Kill Yourself
TTITLE8=I Shot The Devil
TTITLE9=Barnraiser Intro - Barefoot, Toothless And Pissed (Demo 2004)
TTITLE10=Bring Me The Head Of Beatle Bob (Demo 2004)
TTITLE11=Omen Of Prophecy (Demo 2004)
TTITLE12=McClitty For President '04 (Demo 2004)
TTITLE13=The Foodening ($3.49 Mark Of The Feast) (Demo 2004)
TTITLE14=Video
EXTD=
EXTT0=
EXTT1=
EXTT2=
EXTT3=
EXTT4=
EXTT5=
EXTT6=
EXTT7=
EXTT8=
EXTT9=
EXTT10=
EXTT11=
EXTT12=
EXTT13=
EXTT14=
PLAYORDER=
